<svg width="320" height="84" viewBox="0 0 320 84" fill="none" xmlns="http://www.w3.org/2000/svg">
<g filter="url(#filter0_d_740_2544)">
<path d="M305.31 6.35999H6V69.18H305.31V6.35999Z" fill="#F3D3A7"/>
<path d="M303.7 8H7V67.9H303.7V8Z" fill="url(#paint0_linear_740_2544)"/>
<path fill-rule="evenodd" clip-rule="evenodd" d="M294.32 65.35C294.32 64.43 294.32 63.56 294.32 62.69C294.32 62.16 294.32 62.24 294.77 62.23C295.1 62.23 295.43 62.23 295.83 62.23C295.83 62.62 295.83 63.01 295.83 63.39C295.83 63.96 295.85 64.53 295.85 65.11C295.85 65.35 295.85 65.52 296.71 65.23C298 64.8 299.34 64.96 300.64 65.37C300.68 65.38 300.7 65.37 300.8 65.34V60.52C300.64 60.52 300.46 60.5 300.28 60.5C299.49 60.48 298.7 60.45 297.9 60.44C297.74 60.44 297.62 60.31 297.63 60.15C297.64 59.75 297.63 59.36 297.63 58.89C297.97 58.89 298.27 58.89 298.58 58.89C299.24 58.89 299.9 58.86 300.56 58.86C300.74 58.86 300.89 58.72 300.89 58.54C300.88 56.35 300.89 54.16 300.88 51.98C300.88 48.09 300.88 35.98 300.87 32.09C300.87 31.98 300.87 31.88 300.87 31.77H300.89V45.21H300.87C300.87 44.96 300.87 44.72 300.87 44.48C300.87 40.59 300.87 28.48 300.88 24.59C300.88 22.4 300.88 20.21 300.89 18.03C300.89 17.85 300.74 17.7 300.56 17.71C299.96 17.71 299.37 17.71 298.77 17.69C298.4 17.69 298.03 17.69 297.63 17.69C297.63 17.23 297.63 16.83 297.63 16.43C297.63 16.27 297.75 16.14 297.9 16.14C298.69 16.14 299.48 16.1 300.28 16.08C300.46 16.08 300.64 16.06 300.8 16.06V11.24C300.7 11.21 300.68 11.19 300.63 11.21C299.43 11.72 298.09 11.84 296.86 11.4C295.84 11.04 295.85 11.22 295.85 11.47C295.85 12.04 295.83 12.61 295.83 13.19C295.83 13.58 295.83 13.96 295.83 14.35C295.43 14.35 295.1 14.35 294.77 14.35C294.31 14.35 294.32 14.42 294.32 13.89C294.32 13.02 294.32 12.15 294.32 11.23H276.47V11.2H36.3602V11.23H16.5002C16.5002 12.15 16.5002 13.02 16.5002 13.89C16.5002 14.42 16.5002 14.34 16.0502 14.35C15.7202 14.35 15.3902 14.35 14.9902 14.35C14.9902 13.96 14.9902 13.57 14.9902 13.19C14.9902 12.62 14.9702 12.05 14.9702 11.47C14.9702 11.22 14.9702 11.04 13.9702 11.4C12.7302 11.84 11.4202 11.64 10.1702 11.21C10.1302 11.2 10.1102 11.21 10.0102 11.24V16.06C10.1702 16.06 10.3502 16.08 10.5302 16.08C11.3202 16.1 12.1202 16.13 12.9102 16.14C13.0702 16.14 13.1902 16.27 13.1802 16.43C13.1702 16.83 13.1802 17.22 13.1802 17.69C12.7702 17.69 12.4102 17.69 12.0302 17.69C11.4202 17.7 10.8102 17.69 10.2002 17.71C9.98016 17.71 9.91016 17.8 9.91016 18.03C9.92016 20.22 9.91015 22.41 9.92015 24.59C9.92015 28.48 9.92015 40.59 9.93015 44.48C9.93015 44.9 9.93015 45.32 9.93015 45.76V30.82C9.93015 31.26 9.93015 31.68 9.93015 32.1C9.93015 35.99 9.93015 48.1 9.92015 51.99C9.92015 54.18 9.92016 56.37 9.91016 58.55C9.91016 58.79 9.98016 58.87 10.2002 58.87C10.8102 58.89 11.4202 58.87 12.0202 58.89C12.4002 58.89 12.7602 58.89 13.1702 58.89C13.1702 59.35 13.1702 59.75 13.1702 60.15C13.1702 60.31 13.0502 60.44 12.9002 60.44C12.1102 60.44 11.3202 60.48 10.5202 60.5C10.3402 60.5 10.1602 60.52 10.0002 60.52V65.34C10.1002 65.37 10.1102 65.39 10.1602 65.37C11.4502 64.96 12.8001 64.8 14.0901 65.23C14.9501 65.52 14.9501 65.35 14.9501 65.11C14.9501 64.54 14.9702 63.97 14.9702 63.39C14.9702 63 14.9702 62.62 14.9702 62.23C15.3702 62.23 15.7002 62.23 16.0302 62.23C16.4902 62.23 16.4801 62.16 16.4801 62.69C16.4801 63.56 16.4801 64.43 16.4801 65.35H36.3401V65.38H276.45V65.35H294.3H294.32ZM299.09 62.18V63.73C298.97 63.73 298.87 63.74 298.78 63.74C298.4 63.74 298.02 63.74 297.63 63.74V62.17H299.1L299.09 62.18ZM295.65 58.9L295.78 59.03C295.78 59.47 295.78 59.9 295.78 60.35C295.31 60.35 294.87 60.35 294.42 60.35L294.29 60.22C294.28 59.78 294.29 59.34 294.29 58.9C294.78 58.9 295.22 58.9 295.65 58.9ZM288.08 58.78C289.45 58.87 290.83 58.83 292.2 58.86C292.3 58.86 292.47 58.94 292.47 58.99C292.49 59.43 292.48 59.87 292.48 60.32H284.65C284.79 60.17 284.86 60.08 284.95 60.01C285.87 59.3 286.82 58.71 288.08 58.79V58.78ZM292.2 17.72C290.83 17.75 289.45 17.72 288.08 17.8C286.82 17.88 285.87 17.29 284.95 16.58C284.86 16.51 284.79 16.41 284.65 16.27H292.48C292.48 16.72 292.48 17.16 292.47 17.6C292.47 17.65 292.29 17.72 292.2 17.73V17.72ZM295.79 16.22C295.79 16.67 295.79 17.11 295.79 17.55C295.79 17.59 295.71 17.67 295.66 17.67C295.22 17.67 294.79 17.67 294.3 17.67C294.3 17.23 294.3 16.79 294.3 16.35C294.3 16.3 294.39 16.22 294.45 16.21C294.89 16.2 295.33 16.21 295.79 16.21V16.22ZM297.63 12.82C298.03 12.82 298.41 12.82 298.78 12.82C298.88 12.82 298.98 12.82 299.09 12.83V14.38H297.62V12.81L297.63 12.82ZM11.7402 14.39V12.84C11.8602 12.84 11.9602 12.83 12.0502 12.83C12.4302 12.83 12.8101 12.83 13.2001 12.83V14.4H11.7301L11.7402 14.39ZM15.1802 17.67C15.1102 17.67 15.0502 17.61 15.0502 17.54C15.0502 17.1 15.0502 16.67 15.0502 16.22C15.5202 16.22 15.9502 16.22 16.3902 16.22C16.4402 16.22 16.5402 16.31 16.5402 16.36C16.5502 16.8 16.5402 17.24 16.5402 17.68C16.0502 17.68 15.6202 17.68 15.1802 17.68V17.67ZM22.7502 17.79C21.3802 17.7 20.0002 17.74 18.6302 17.71C18.5302 17.71 18.3602 17.63 18.3602 17.58C18.3402 17.14 18.3502 16.7 18.3502 16.25H26.1802C26.0402 16.4 25.9702 16.49 25.8802 16.56C24.9602 17.27 24.0102 17.86 22.7502 17.78V17.79ZM18.6302 58.85C20.0002 58.82 21.3802 58.85 22.7502 58.77C24.0102 58.69 24.9602 59.28 25.8802 59.99C25.9702 60.06 26.0402 60.16 26.1802 60.3H18.3502C18.3502 59.85 18.3502 59.41 18.3602 58.97C18.3602 58.92 18.5402 58.84 18.6302 58.84V58.85ZM15.0402 60.35C15.0402 59.9 15.0402 59.46 15.0402 59.03C15.0402 58.96 15.1002 58.9 15.1702 58.9C15.6102 58.9 16.0502 58.9 16.5302 58.9C16.5302 59.33 16.5302 59.77 16.5302 60.2L16.3802 60.35C15.9402 60.36 15.5002 60.35 15.0402 60.35ZM13.2001 63.75C12.8001 63.75 12.4202 63.75 12.0502 63.75C11.9502 63.75 11.8502 63.75 11.7402 63.74V62.19H13.2102V63.76L13.2001 63.75ZM36.3701 63.81C30.3601 63.75 24.3502 63.69 18.3602 63.63C18.3602 63.23 18.3602 62.89 18.3602 62.55C18.3602 62.33 18.5502 62.14 18.7702 62.14C22.7802 62.12 26.8001 62.1 30.8102 62.08C30.9302 62.08 31.0402 62.08 31.1502 62.07C31.2202 61.83 31.1302 61.71 30.9402 61.64C30.5702 61.51 30.2101 61.36 29.8401 61.24C29.3601 61.09 28.9702 60.77 28.6902 60.35C28.3502 59.85 27.9102 59.46 27.4202 59.1C26.1102 58.13 24.7201 57.37 23.0602 57.2C22.8401 57.18 22.6202 57.2 22.4002 57.16C22.2602 57.14 22.1102 57.07 22.0202 56.97C21.9802 56.93 22.0702 56.74 22.1402 56.65C22.3802 56.32 22.5401 55.96 22.5602 55.54C22.5802 55.2 22.6102 54.87 22.6802 54.54C22.7702 54.13 22.9002 53.73 23.0002 53.32C23.0902 52.97 23.1702 52.61 23.2702 52.15C22.8202 52.24 22.4502 52.3 22.0802 52.38C21.3502 52.54 20.6602 52.87 19.8902 52.9C19.5202 52.92 19.1502 53.07 18.7902 53.18C18.6302 53.23 18.4902 53.32 18.3302 53.41C18.3002 53.3 18.2801 53.21 18.2601 53.13C17.9601 51.97 17.7102 50.8 17.3102 49.67C17.1502 49.22 16.9001 48.8 16.5901 48.43C15.9601 47.68 15.2701 46.97 14.5901 46.26C14.2201 45.88 13.9402 45.48 13.8802 44.94C13.8602 44.7 13.7302 44.49 13.4202 44.42C13.3802 44.93 13.3302 45.42 13.3202 45.91C13.3002 48.43 13.2902 50.95 13.2802 53.47C13.2802 54.57 13.2801 55.68 13.2601 56.78C13.2601 56.88 13.1702 57.06 13.1102 57.06C12.6402 57.08 12.1702 57.07 11.6702 57.07C11.6402 51.16 11.6102 37.07 11.5702 31.17V45.39C11.6002 39.48 11.6302 25.4 11.6702 19.49C12.1802 19.49 12.6502 19.49 13.1102 19.5C13.1702 19.5 13.2601 19.68 13.2601 19.78C13.2801 20.88 13.2802 21.99 13.2802 23.09C13.2902 25.61 13.3002 28.13 13.3202 30.65C13.3202 31.14 13.3802 31.63 13.4202 32.14C13.7402 32.06 13.8602 31.86 13.8802 31.62C13.9302 31.08 14.2201 30.68 14.5901 30.3C15.2301 29.64 15.8702 28.98 16.4702 28.28C16.8802 27.8 17.2002 27.24 17.4002 26.64C17.7502 25.59 17.9901 24.5 18.2601 23.43L18.3302 23.15C18.5002 23.23 18.6402 23.33 18.7902 23.38C19.1502 23.49 19.5202 23.64 19.8902 23.66C20.6602 23.7 21.3402 24.02 22.0802 24.18C22.4502 24.26 22.8202 24.32 23.2702 24.41C23.1602 23.95 23.0902 23.6 23.0002 23.24C22.9002 22.83 22.7602 22.43 22.6802 22.02C22.6102 21.69 22.5802 21.35 22.5602 21.02C22.5401 20.6 22.3802 20.25 22.1402 19.91C22.0702 19.81 21.9802 19.63 22.0202 19.59C22.1102 19.49 22.2602 19.42 22.4002 19.4C22.6202 19.36 22.8401 19.39 23.0602 19.36C24.7101 19.19 26.1102 18.43 27.4202 17.46C27.9002 17.1 28.3502 16.71 28.6902 16.21C28.9702 15.79 29.3701 15.48 29.8401 15.32C30.2101 15.2 30.5702 15.05 30.9402 14.92C31.1302 14.85 31.2202 14.73 31.1502 14.49C30.8902 14.48 30.5802 14.44 30.3502 14.57L23.0602 15.29C18.3701 13.77 18.3702 14.95 18.3602 14.02C18.3602 13.68 18.3602 13.34 18.3602 12.94C24.3502 12.88 30.3601 12.82 36.3701 12.76H274.46C280.47 12.82 286.48 12.88 292.47 12.94C292.47 13.34 292.47 13.68 292.47 14.02C292.47 14.24 292.28 14.43 292.06 14.43C288.05 14.45 284.03 14.47 280.02 14.49C279.9 14.49 279.79 14.49 279.68 14.5C279.61 14.74 279.7 14.86 279.89 14.93C280.26 15.06 280.62 15.21 280.99 15.33C281.47 15.48 281.86 15.8 282.14 16.22C282.48 16.72 282.92 17.11 283.41 17.47C284.72 18.44 286.11 19.2 287.77 19.37C287.99 19.39 288.21 19.37 288.43 19.41C288.57 19.43 288.72 19.5 288.81 19.6C288.85 19.64 288.76 19.83 288.69 19.92C288.45 20.25 288.29 20.61 288.27 21.03C288.25 21.37 288.22 21.7 288.15 22.03C288.06 22.44 287.93 22.84 287.83 23.25C287.74 23.6 287.66 23.96 287.56 24.42C288.01 24.33 288.38 24.27 288.75 24.19C289.48 24.03 290.17 23.7 290.94 23.67C291.31 23.65 291.68 23.5 292.04 23.39C292.2 23.34 292.34 23.25 292.5 23.16C292.53 23.27 292.55 23.36 292.57 23.44C292.84 24.51 293.08 25.6 293.43 26.65C293.63 27.25 293.95 27.8 294.36 28.29C294.96 28.99 295.6 29.65 296.24 30.31C296.61 30.69 296.89 31.09 296.95 31.63C296.97 31.87 297.1 32.08 297.41 32.15C297.45 31.64 297.5 31.15 297.51 30.66C297.53 28.14 297.54 25.62 297.55 23.1C297.55 22 297.55 20.89 297.57 19.79C297.57 19.69 297.66 19.51 297.72 19.51C298.19 19.49 298.66 19.5 299.16 19.5C299.19 25.35 299.22 39.38 299.26 45.22V31.78C299.23 37.49 299.2 51.38 299.17 57.09C298.66 57.09 298.19 57.09 297.73 57.08C297.67 57.08 297.58 56.9 297.58 56.8C297.56 55.7 297.56 54.59 297.56 53.49C297.55 50.97 297.54 48.45 297.52 45.93C297.52 45.44 297.46 44.95 297.42 44.44C297.1 44.52 296.98 44.72 296.96 44.96C296.91 45.5 296.62 45.9 296.25 46.28C295.57 46.99 294.88 47.7 294.25 48.45C293.94 48.82 293.69 49.24 293.53 49.69C293.13 50.82 292.88 51.99 292.58 53.15C292.56 53.24 292.54 53.32 292.51 53.43C292.34 53.35 292.2 53.25 292.05 53.2C291.69 53.09 291.32 52.94 290.95 52.92C290.18 52.88 289.5 52.56 288.76 52.4C288.39 52.32 288.02 52.26 287.57 52.17C287.68 52.63 287.75 52.98 287.84 53.34C287.94 53.75 288.08 54.15 288.16 54.56C288.23 54.89 288.26 55.23 288.28 55.56C288.3 55.98 288.46 56.33 288.7 56.67C288.77 56.76 288.86 56.95 288.82 56.99C288.73 57.09 288.58 57.16 288.44 57.18C288.22 57.22 288 57.19 287.78 57.22C286.13 57.39 284.73 58.15 283.42 59.12C282.94 59.48 282.49 59.87 282.15 60.37C281.87 60.79 281.47 61.1 281 61.26C280.63 61.38 280.27 61.53 279.9 61.66C279.71 61.73 279.62 61.85 279.69 62.09C279.8 62.09 279.91 62.1 280.03 62.1C284.04 62.12 288.06 62.14 292.07 62.16C292.29 62.16 292.48 62.34 292.48 62.57C292.48 62.91 292.48 63.25 292.48 63.65C286.49 63.71 280.48 63.77 274.47 63.83H36.3602L36.3701 63.81ZM16.4702 56.95H15.0002C15.0002 56.39 15.0002 55.85 15.0002 55.31C14.9902 53.4 14.9702 51.48 14.9602 49.57C14.9602 49.46 15.0501 49.35 15.0901 49.23C15.1901 49.29 15.3102 49.32 15.3802 49.4C16.1602 50.31 16.5602 51.37 16.5502 52.57C16.5402 54.03 16.4902 55.49 16.4602 56.94L16.4702 56.95ZM20.7402 53.96C21.1602 54.02 21.4701 54.48 21.3701 54.92C21.2301 55.57 20.4402 56.22 19.7802 56.22C19.4602 56.22 19.2102 56.02 19.1302 55.7C18.9602 54.96 19.9802 53.86 20.7402 53.96ZM16.5602 23.98C16.5602 25.18 16.1702 26.24 15.3902 27.15C15.3202 27.23 15.2002 27.27 15.1002 27.32C15.0502 27.21 14.9702 27.1 14.9702 26.98C14.9702 25.07 14.9901 23.15 15.0101 21.24C15.0101 20.7 15.0101 20.16 15.0101 19.59H16.4602C16.4602 19.64 16.4801 19.69 16.4801 19.74C16.5101 21.15 16.5501 22.56 16.5602 23.98ZM19.7802 20.33C20.4402 20.33 21.2301 20.98 21.3701 21.63C21.4601 22.07 21.1602 22.53 20.7402 22.59C19.9802 22.69 18.9702 21.58 19.1302 20.85C19.2002 20.53 19.4502 20.33 19.7802 20.33ZM294.35 19.74C294.35 19.74 294.36 19.64 294.37 19.59H295.82C295.82 20.16 295.82 20.7 295.82 21.24C295.83 23.15 295.85 25.07 295.86 26.98C295.86 27.09 295.77 27.2 295.73 27.32C295.63 27.26 295.51 27.23 295.44 27.15C294.66 26.24 294.26 25.18 294.27 23.98C294.28 22.57 294.32 21.16 294.35 19.74ZM290.08 22.59C289.66 22.53 289.35 22.07 289.45 21.63C289.59 20.98 290.38 20.33 291.04 20.33C291.36 20.33 291.61 20.53 291.69 20.85C291.86 21.59 290.84 22.69 290.08 22.59ZM294.26 52.57C294.26 51.37 294.65 50.31 295.43 49.4C295.5 49.32 295.62 49.28 295.72 49.23C295.77 49.34 295.85 49.45 295.85 49.57C295.85 51.48 295.83 53.4 295.81 55.31C295.81 55.85 295.81 56.39 295.81 56.96H294.34C294.31 55.49 294.27 54.03 294.25 52.57H294.26ZM291.04 56.22C290.38 56.22 289.59 55.57 289.45 54.92C289.36 54.48 289.66 54.02 290.08 53.96C290.84 53.86 291.85 54.97 291.69 55.7C291.62 56.02 291.37 56.22 291.04 56.22Z" fill="#F3D3A7"/>
<path d="M55.5496 28.6111V31.4893H52.3146V33.8441H55.8112V36.7937H53.0044L53.3612 37.9354C53.4564 38.3953 53.7101 38.6252 54.1224 38.6252H56.1204V41.2893H52.4098C51.2997 41.2893 50.602 40.7819 50.3165 39.767L49.3651 36.7937H40.8257L38.8753 40.3854C38.574 40.988 38.0982 41.2893 37.4481 41.2893H34.2131V38.6252H35.8544C36.1081 38.6252 36.3063 38.4666 36.449 38.1495L37.1864 36.7937H34.4985V33.8441H37.5432V31.4893H34.8078V28.6111H37.5432V26.7082H40.9923V28.6111H48.7942V26.7082H52.3146V28.6111H55.5496ZM48.7942 33.8441V31.4893H40.9923V33.8441H48.7942ZM37.8524 41.2893H41.2539L38.8039 46.784C38.5502 47.4341 38.1299 47.7592 37.5432 47.7592H34.8078V44.9762H35.9495C36.1715 44.9762 36.346 44.8176 36.4728 44.5005L37.8524 41.2893ZM42.7049 37.8403H46.035V45.5709C46.035 46.443 45.7575 47.1725 45.2025 47.7592C44.7426 48.2667 44.0924 48.5204 43.252 48.5204H40.3024V45.666H42.0389C42.4829 45.666 42.7049 45.222 42.7049 44.334V37.8403ZM46.3918 40.1238H49.4364L50.2214 44.7145C50.3007 45.1586 50.5227 45.3806 50.8874 45.3806H51.1729V47.9495H49.3651C48.4612 47.9495 47.8824 47.4738 47.6287 46.5223L46.3918 40.1238ZM50.5782 41.765H53.6229L54.3127 44.6194C54.392 45.0476 54.614 45.2616 54.9787 45.2616H55.6209V47.8544H53.4564C52.5525 47.8544 51.9737 47.3786 51.7199 46.4272L50.5782 41.765ZM80.2875 27.5645V29.848H71.1535V30.7043H79.8118V32.8927H59.1651V30.7043H67.5379V29.848H58.5704V27.5645H67.5379V26.613H71.1535V27.5645H80.2875ZM79.9069 33.6776V36.8888C79.9069 37.9671 79.2488 38.6252 77.9326 38.8631L77.6472 39.9335H80.3826V42.3359H58.6656V39.9335H61.187L60.8777 38.982H59.1651V33.6776H79.9069ZM64.8976 39.9335H73.9127L74.1982 38.982H64.6122L64.8976 39.9335ZM62.5666 35.7471V36.8888H75.7918C76.2517 36.8888 76.4817 36.7699 76.4817 36.532V35.7471H62.5666ZM59.07 43.1684H79.8118V46.998C79.8118 48.1398 79.2726 48.7107 78.1943 48.7107H59.07V43.1684ZM76.1962 46.4272C76.3865 46.4272 76.4817 46.3717 76.4817 46.2607V45.4757H62.4001V46.4272H76.1962ZM85.8059 26.7082H89.2074L87.4234 32.1791V48.6155H84.2836V35.4854H82.9278V32.3456H83.7127C83.9982 32.3456 84.2281 32.0364 84.4025 31.4179L85.8059 26.7082ZM91.1103 26.7082H94.4642L94.1074 28.3495H104.835V30.3475L103.979 34.6291H100.554L101.386 31.299H98.2463V45.7612C98.2463 46.6016 97.9846 47.3073 97.4613 47.8781C97.0332 48.3697 96.4147 48.6155 95.606 48.6155H92.5613V45.7612H94.4642C94.8448 45.7612 95.0351 45.3171 95.0351 44.4291V31.299H93.4652L93.1322 32.7975C92.7833 34.193 91.927 34.8907 90.5632 34.8907H88.3749V32.0364H89.4215C89.7069 32.0364 89.9448 31.743 90.1351 31.1563L91.1103 26.7082ZM90.6584 36.8888H93.9885L92.6564 44.4529C92.3076 46.1972 91.4433 47.0694 90.0637 47.0694H88.1608V44.215H88.922C89.2391 44.215 89.4849 43.8107 89.6594 43.0019L90.6584 36.8888ZM99.1264 36.7937H102.433L103.456 43.1209C103.582 43.9296 103.789 44.334 104.074 44.334H104.835V47.2597H102.837C101.727 47.2597 101.005 46.4351 100.672 44.7859L99.1264 36.7937ZM112.161 26.613H115.277L115.135 27.1126H116.823V26.4465H119.749V27.1126H124.34V26.4465H127.385V27.1126H129.288V29.3961H127.385V29.848H124.34V29.3961H119.749V29.848H116.823V29.3961H114.921V27.7786L113.47 32.1791V46.998C113.47 48.2667 112.621 48.901 110.924 48.901H107.785V46.332H109.569C110.076 46.332 110.33 46.11 110.33 45.666V42.6689C110.219 42.7006 110.1 42.7165 109.973 42.7165H107.571V39.9335H109.117C109.402 39.9335 109.656 39.7907 109.878 39.5053L110.33 38.8155V36.7223H107.475V33.9393H109.473C109.838 33.9393 110.124 33.5825 110.33 32.8689V32.7975C110.33 32.4962 110.274 32.1474 110.163 31.7509L106.738 26.7082H109.973L111.543 28.7063L112.161 26.613ZM115.967 30.2524H119.392C119.313 30.4427 119.234 30.625 119.155 30.7995H122.128L122.437 29.9432H125.743L125.434 30.7995H129.097V32.7975H125.101V33.5825H128.883V35.4854H125.101V36.2466H128.883V38.1257H125.101V38.8869H129.192V40.8849H118.251V41.0752H115.111V33.749H114.064V31.6558H114.73C115.222 31.6558 115.634 31.188 115.967 30.2524ZM118.251 38.8869H121.866V38.1257H118.251V38.8869ZM121.866 36.2466V35.4854H118.251V36.2466H121.866ZM121.866 33.5825V32.7975H118.251V33.5825H121.866ZM114.825 41.4796H129.097V43.4777L124.673 45.9514L124.958 46.0704C125.498 46.3082 126.108 46.4272 126.79 46.4272H129.288V48.7107H124.602C124.031 48.7107 123.523 48.5917 123.079 48.3539L121.724 47.6165L120.487 48.3063C120.106 48.5759 119.583 48.7107 118.917 48.7107H114.255V46.4272H117.965C118.378 46.4272 118.703 46.3558 118.94 46.2131L119.036 46.1655L115.016 44.0247H120.249L121.7 44.667L123.65 43.5728H114.825V41.4796ZM134.687 26.7082H138.231L135.734 31.7985C135.639 32.0364 135.504 32.2187 135.329 32.3456H138.422L136.78 35.7946V48.6155H133.641V38.4349H131.738V35.4854H132.998C133.268 35.4854 133.474 35.311 133.617 34.9621L134.782 32.5121C134.766 32.5279 134.735 32.5359 134.687 32.5359H131.928V29.6577H132.879C133.149 29.6577 133.355 29.4991 133.498 29.182L134.687 26.7082ZM138.683 26.8033H152.789V34.2485C152.789 35.4378 152.313 36.0325 151.361 36.0325H138.683V26.8033ZM149.554 33.5825C149.744 33.5825 149.839 33.3605 149.839 32.9165V32.5359H141.657V33.5825H149.554ZM141.657 30.3475H149.839V29.3009H141.657V30.3475ZM153.36 36.8888V39.3864H151.552V40.7184H153.55V43.2874H151.552V47.0694C151.552 48.1002 150.886 48.6155 149.554 48.6155H144.963V46.0228H147.746C148.063 46.0228 148.222 45.8722 148.222 45.5709V43.2874H137.732V40.7184H148.222V39.3864H138.017V36.8888H153.36ZM138.326 43.9296H141.466L142.299 45.333C142.473 45.6184 142.798 45.7612 143.274 45.7612H144.511V48.116H141.728C141.078 48.116 140.515 47.7671 140.039 47.0694L138.326 43.9296ZM156.499 26.7082H159.829V44.7145C159.829 45.0793 160.02 45.2616 160.4 45.2616H162.684V48.5204H158.497C157.165 48.5204 156.499 47.8861 156.499 46.6175V26.7082ZM160.876 28.3495H164.373L165.705 34.2485C165.863 35.0097 166.125 35.3903 166.49 35.3903H167.631V38.5301H165.134C163.865 38.5301 163.041 37.7134 162.66 36.0801L160.876 28.3495ZM171.913 26.613H175.505L173.578 32.8927L175.838 44.1199C176.028 45.1506 176.202 45.666 176.361 45.666H177.907V48.5204H173.411C173.126 48.5204 172.833 47.7671 172.531 46.2607L171.413 39.7194L169.296 46.4747C168.789 47.9654 168.202 48.7107 167.536 48.7107H164.277V45.5709H165.229C165.784 45.5709 166.387 44.5322 167.037 42.4548L171.913 26.613ZM202.169 26.8985V30.0383H192.084V48.5204H188.635V30.0383H180.452V26.8985H202.169ZM192.631 32.5359H196.175L198.459 41.6699C198.554 42.2408 198.808 42.5262 199.22 42.5262H201.028V45.666H197.507C196.461 45.666 195.795 45.0634 195.509 43.8582L192.631 32.5359ZM212.707 27.4931V29.848H205.119V27.4931H212.707ZM212.992 31.3941V33.9393H209.948V48.6155H207.497V33.9393H204.714V31.3941H212.992ZM206.998 34.9859V46.2131C206.998 46.7523 206.8 47.2676 206.403 47.7592C206.023 48.2349 205.46 48.4887 204.714 48.5204V45.4757C204.905 45.3647 205 45.2299 205 45.0713V34.9859H206.998ZM210.447 34.9859H212.35V44.0247C212.35 44.5639 212.445 44.9128 212.635 45.0713V48.0447C211.874 48.0447 211.28 47.8623 210.851 47.4976C210.582 47.1804 210.447 46.7205 210.447 46.1179V34.9859ZM213.492 27.6597H217.083V26.7082H219.296V27.6597H220.437V26.7082H222.626V27.6597H226.217V34.1534C226.217 35.3427 225.623 35.9373 224.433 35.9373H213.492V27.6597ZM223.173 33.749C223.506 33.749 223.672 33.527 223.672 33.083V32.7024H222.626V33.749H223.173ZM220.437 33.749V32.7024H219.296V33.749H220.437ZM217.083 33.749V32.7024H216.037V33.749H217.083ZM216.037 30.7995H217.083V29.848H216.037V30.7995ZM219.296 29.848V30.7995H220.437V29.848H219.296ZM222.626 29.848V30.7995H223.672V29.848H222.626ZM226.527 36.532V38.8155H213.087V36.532H226.527ZM213.682 39.4815H225.956V42.9781C225.956 43.9455 225.543 44.4291 224.719 44.4291H213.682V39.4815ZM223.173 42.5262C223.315 42.5262 223.387 42.4707 223.387 42.3597V41.3844H216.251V42.5262H223.173ZM214.8 44.9762H217.678L218.201 46.332H220.984L221.579 44.9762H224.433L223.839 46.332H226.622V48.5204H212.992V46.332H215.347L214.8 44.9762ZM230.523 27.398H249.933V34.6291C249.933 36.1356 249.068 36.8888 247.34 36.8888H230.523V27.398ZM245.651 33.8441C246.206 33.8441 246.484 33.5904 246.484 33.083V30.4427H233.853V33.8441H245.651ZM229.666 38.1257H239.443V46.1179C239.443 47.5134 238.626 48.2112 236.993 48.2112H229.666V38.1257ZM235.351 45.3806C235.859 45.3806 236.113 45.1586 236.113 44.7145V40.9801H232.901V45.3806H235.351ZM240.703 38.1257H250.48V46.1179C250.48 47.5134 249.663 48.2112 248.03 48.2112H240.703V38.1257ZM246.388 45.3806C246.912 45.3806 247.173 45.1586 247.173 44.7145V40.9801H243.938V45.3806H246.388ZM266.179 33.5111L265.085 41.3131H262.991L261.945 33.5349V29.9194H266.179V33.5111ZM266.179 47.45H261.945V43.0257H266.179V47.45Z" fill="#F3D3A7"/>
</g>
<defs>
<filter id="filter0_d_740_2544" x="0" y="0.359985" width="319.31" height="82.82" filterUnits="userSpaceOnUse" color-interpolation-filters="sRGB">
<feFlood flood-opacity="0" result="BackgroundImageFix"/>
<feColorMatrix in="SourceAlpha" type="matrix" values="0 0 0 0 0 0 0 0 0 0 0 0 0 0 0 0 0 0 127 0" result="hardAlpha"/>
<feOffset dx="4" dy="4"/>
<feGaussianBlur stdDeviation="5"/>
<feColorMatrix type="matrix" values="0 0 0 0 0 0 0 0 0 0 0 0 0 0 0 0 0 0 0.25 0"/>
<feBlend mode="normal" in2="BackgroundImageFix" result="effect1_dropShadow_740_2544"/>
<feBlend mode="normal" in="SourceGraphic" in2="effect1_dropShadow_740_2544" result="shape"/>
</filter>
<linearGradient id="paint0_linear_740_2544" x1="7" y1="37.94" x2="303.71" y2="37.94" gradientUnits="userSpaceOnUse">
<stop stop-color="#A12E2B"/>
<stop offset="1" stop-color="#701410"/>
</linearGradient>
</defs>
</svg>
